<svg xmlns="http://www.w3.org/2000/svg" xmlns:xlink="http://www.w3.org/1999/xlink" viewBox="0 0 1488 398.998">
  <defs>
    <style>
      .cls-1 {
        opacity: 0.197;
      }

      .cls-2 {
        fill: url(#linear-gradient);
      }

      .cls-3 {
        fill: #e1e6f0;
      }

      .cls-4 {
        fill: url(#linear-gradient-2);
      }

      .cls-5 {
        fill: url(#linear-gradient-3);
      }

      .cls-6 {
        fill: url(#linear-gradient-4);
      }

      .cls-7 {
        fill: url(#linear-gradient-6);
      }

      .cls-8 {
        fill: url(#linear-gradient-7);
      }

      .cls-9 {
        fill: #fff;
      }

      .cls-10 {
        fill: url(#linear-gradient-8);
      }

      .cls-11 {
        fill: url(#linear-gradient-10);
      }

      .cls-12 {
        fill: url(#linear-gradient-11);
      }

      .cls-13 {
        fill: url(#linear-gradient-12);
      }

      .cls-14 {
        fill: url(#linear-gradient-13);
      }

      .cls-15 {
        fill: url(#linear-gradient-14);
      }

      .cls-16 {
        fill: url(#linear-gradient-15);
      }

      .cls-17 {
        fill: url(#linear-gradient-17);
      }

      .cls-18 {
        fill: url(#linear-gradient-20);
      }

      .cls-19 {
        fill: url(#linear-gradient-22);
      }

      .cls-20 {
        fill: url(#linear-gradient-23);
      }

      .cls-21 {
        fill: url(#linear-gradient-24);
      }
    </style>
    <linearGradient id="linear-gradient" x1="-0.491" y1="0.5" x2="0.903" y2="0.5" gradientUnits="objectBoundingBox">
      <stop offset="0" stop-color="#788acb"/>
      <stop offset="1" stop-color="#fff"/>
    </linearGradient>
    <linearGradient id="linear-gradient-2" x1="0.834" y1="0.095" x2="0.269" y2="0.78" gradientUnits="objectBoundingBox">
      <stop offset="0" stop-color="#fff"/>
      <stop offset="1" stop-color="#e1e6f0"/>
    </linearGradient>
    <linearGradient id="linear-gradient-3" x1="0.524" y1="-0.378" x2="0.489" y2="0.908" xlink:href="#linear-gradient-2"/>
    <linearGradient id="linear-gradient-4" x1="0.861" y1="0.093" x2="0.25" y2="0.782" xlink:href="#linear-gradient-2"/>
    <linearGradient id="linear-gradient-6" x1="-0.423" y1="0.5" x2="0.751" y2="0.5" xlink:href="#linear-gradient"/>
    <linearGradient id="linear-gradient-7" x1="-0.545" y1="-0.523" x2="1.066" y2="1.054" gradientUnits="objectBoundingBox">
      <stop offset="0" stop-color="#788acb"/>
      <stop offset="1" stop-color="#dee8ff"/>
    </linearGradient>
    <linearGradient id="linear-gradient-8" x1="0.786" y1="0.099" x2="0.302" y2="0.777" xlink:href="#linear-gradient-2"/>
    <linearGradient id="linear-gradient-10" x1="-0.172" y1="0.5" x2="0.966" y2="0.5" gradientUnits="objectBoundingBox">
      <stop offset="0" stop-color="#788acb"/>
      <stop offset="0.214" stop-color="#a2aedb"/>
      <stop offset="0.454" stop-color="#cad1eb"/>
      <stop offset="0.673" stop-color="#e7eaf6"/>
      <stop offset="0.862" stop-color="#f9fafd"/>
      <stop offset="1" stop-color="#fff"/>
    </linearGradient>
    <linearGradient id="linear-gradient-11" x1="-0.305" y1="-0.054" x2="0.931" y2="0.797" xlink:href="#linear-gradient-7"/>
    <linearGradient id="linear-gradient-12" x1="0.561" y1="0.188" x2="0.458" y2="0.715" xlink:href="#linear-gradient-2"/>
    <linearGradient id="linear-gradient-13" x1="0.611" y1="0.5" x2="0.038" y2="0.5" xlink:href="#linear-gradient-7"/>
    <linearGradient id="linear-gradient-14" x1="-0.166" y1="0.042" x2="1.07" y2="0.892" xlink:href="#linear-gradient-7"/>
    <linearGradient id="linear-gradient-15" x1="0.561" y1="0.189" x2="0.458" y2="0.715" xlink:href="#linear-gradient-2"/>
    <linearGradient id="linear-gradient-17" x1="-0.028" y1="0.137" x2="1.209" y2="0.987" xlink:href="#linear-gradient-7"/>
    <linearGradient id="linear-gradient-20" x1="0.111" y1="0.233" x2="1.348" y2="1.083" xlink:href="#linear-gradient-7"/>
    <linearGradient id="linear-gradient-22" x1="0.988" y1="0.5" x2="0" y2="0.5" xlink:href="#linear-gradient-2"/>
    <linearGradient id="linear-gradient-23" x1="-1.27" y1="-0.572" x2="1.459" y2="1.081" xlink:href="#linear-gradient-7"/>
    <linearGradient id="linear-gradient-24" x1="0.977" y1="0.086" x2="0.17" y2="0.786" xlink:href="#linear-gradient-2"/>
  </defs>
  <g id="Group_143" data-name="Group 143" transform="translate(54 -733)">
    <g id="Group_131" data-name="Group 131" class="cls-1" transform="translate(-54 833)">
      <g id="Group_123" data-name="Group 123">
        <path id="Path_741" data-name="Path 741" class="cls-2" d="M1700.59,1255.13H1550.36v41.358h144.387Z" transform="translate(-1401.102 -1127.997)"/>
        <g id="Group_120" data-name="Group 120" transform="translate(111.627)">
          <path id="Path_742" data-name="Path 742" class="cls-3" d="M1550.36,259.9V380.587l41.4-23.9V236Z" transform="translate(-1508.958 -212.095)"/>
          <path id="Path_743" data-name="Path 743" class="cls-4" d="M1183.012,259.9V380.587l-41.4-23.9V236Z" transform="translate(-1141.61 -212.095)"/>
          <path id="Path_744" data-name="Path 744" class="cls-5" d="M1141.61,23.9l41.4,23.9,41.4-23.9L1183.012,0Z" transform="translate(-1141.61)"/>
        </g>
        <g id="Group_121" data-name="Group 121" transform="translate(22.825 29.959)">
          <path id="Path_745" data-name="Path 745" class="cls-3" d="M485.31,461.064v83.83l26.333-15.2V445.86Z" transform="translate(-458.978 -430.657)"/>
          <path id="Path_746" data-name="Path 746" class="cls-6" d="M251.672,461.064v83.83l-26.332-15.2V445.86Z" transform="translate(-225.34 -430.657)"/>
          <path id="Path_747" data-name="Path 747" class="cls-5" d="M225.34,310.973l26.332,15.2,26.334-15.2-26.334-15.2Z" transform="translate(-225.34 -295.77)"/>
        </g>
        <g id="Group_122" data-name="Group 122" transform="translate(0 87.664)">
          <rect id="Rectangle_49" data-name="Rectangle 49" class="cls-7" width="154.247" height="53.768" transform="translate(41.403 95.519)"/>
          <path id="Path_748" data-name="Path 748" class="cls-8" d="M408.76,1125.374v101.478l41.4-23.9V1101.47Z" transform="translate(-367.357 -1077.565)"/>
          <path id="Path_749" data-name="Path 749" class="cls-9" d="M0,1101.47l41.4,23.9,41.4-23.9-41.4,23.9Z" transform="translate(0 -1077.565)"/>
          <path id="Path_750" data-name="Path 750" class="cls-10" d="M41.4,1125.374v101.478L0,1202.948V1101.47Z" transform="translate(0 -1077.565)"/>
          <path id="Path_751" data-name="Path 751" class="cls-5" d="M0,889.375l41.4,23.9,41.4-23.9-41.4-23.9Z" transform="translate(0 -865.47)"/>
        </g>
      </g>
      <g id="Group_129" data-name="Group 129" transform="translate(204.968 17.764)">
        <rect id="Rectangle_50" data-name="Rectangle 50" class="cls-11" width="68.495" height="36.521" transform="translate(26.412 26.24)"/>
        <g id="Group_128" data-name="Group 128">
          <g id="Group_124" data-name="Group 124" transform="translate(0 25.529)">
            <path id="Path_752" data-name="Path 752" class="cls-12" d="M2361.121,593.219v6.735l26.413-15.249V577.97Z" transform="translate(-2334.708 -562.721)"/>
            <path id="Path_753" data-name="Path 753" class="cls-9" d="M2100.361,577.97l26.413,15.249,26.412-15.249-26.412,15.249Z" transform="translate(-2100.361 -562.721)"/>
            <path id="Path_754" data-name="Path 754" class="cls-13" d="M2126.773,593.219v6.735L2100.361,584.7V577.97Z" transform="translate(-2100.361 -562.721)"/>
            <path id="Path_755" data-name="Path 755" class="cls-14" d="M2100.361,442.669l26.413,15.249,26.412-15.249-26.412-15.249Z" transform="translate(-2100.361 -427.42)"/>
          </g>
          <g id="Group_125" data-name="Group 125" transform="translate(0 17.02)">
            <path id="Path_756" data-name="Path 756" class="cls-15" d="M2361.121,509.2v6.735l26.413-15.249V493.95Z" transform="translate(-2334.708 -478.702)"/>
            <path id="Path_757" data-name="Path 757" class="cls-9" d="M2100.361,493.95l26.413,15.249,26.412-15.249L2126.773,509.2Z" transform="translate(-2100.361 -478.702)"/>
            <path id="Path_758" data-name="Path 758" class="cls-16" d="M2126.773,509.2v6.735l-26.413-15.249V493.95Z" transform="translate(-2100.361 -478.702)"/>
            <path id="Path_759" data-name="Path 759" class="cls-14" d="M2100.361,358.658l26.413,15.249,26.412-15.249-26.412-15.248Z" transform="translate(-2100.361 -343.41)"/>
          </g>
          <g id="Group_126" data-name="Group 126" transform="translate(0 8.509)">
            <path id="Path_760" data-name="Path 760" class="cls-17" d="M2361.121,425.189v6.735l26.413-15.249V409.94Z" transform="translate(-2334.708 -394.691)"/>
            <path id="Path_761" data-name="Path 761" class="cls-9" d="M2100.361,409.94l26.413,15.249,26.412-15.249-26.412,15.249Z" transform="translate(-2100.361 -394.691)"/>
            <path id="Path_762" data-name="Path 762" class="cls-16" d="M2126.773,425.189v6.735l-26.413-15.249V409.94Z" transform="translate(-2100.361 -394.691)"/>
            <path id="Path_763" data-name="Path 763" class="cls-14" d="M2139.559,282.507l13.626-7.867-26.412-15.249-26.413,15.249,26.413,15.249,12.786-7.382" transform="translate(-2100.361 -259.39)"/>
          </g>
          <g id="Group_127" data-name="Group 127">
            <path id="Path_764" data-name="Path 764" class="cls-18" d="M2361.121,341.178v6.735l26.413-15.248V325.93Z" transform="translate(-2334.708 -310.681)"/>
            <path id="Path_765" data-name="Path 765" class="cls-9" d="M2100.361,325.93l26.413,15.248,26.412-15.248-26.412,15.248Z" transform="translate(-2100.361 -310.681)"/>
            <path id="Path_766" data-name="Path 766" class="cls-16" d="M2126.773,341.178v6.735l-26.413-15.248V325.93Z" transform="translate(-2100.361 -310.681)"/>
            <path id="Path_767" data-name="Path 767" class="cls-19" d="M2100.361,190.629l26.413,15.248,26.412-15.248-26.412-15.249Z" transform="translate(-2100.361 -175.38)"/>
          </g>
        </g>
      </g>
      <g id="Group_130" data-name="Group 130" transform="translate(238.968 55.422)">
        <path id="Path_768" data-name="Path 768" class="cls-20" d="M2875.511,896.6v192.173l44.516-25.7V870.9Z" transform="translate(-2830.996 -845.199)"/>
        <path id="Path_769" data-name="Path 769" class="cls-9" d="M2436.031,870.9l44.515,25.7,44.516-25.7-44.516,25.7Z" transform="translate(-2436.031 -845.199)"/>
        <path id="Path_770" data-name="Path 770" class="cls-21" d="M2480.546,896.6v192.173l-44.515-25.7V870.9Z" transform="translate(-2436.031 -845.199)"/>
        <path id="Path_771" data-name="Path 771" class="cls-5" d="M2436.031,642.862l44.515,25.7,44.516-25.7-44.516-25.7Z" transform="translate(-2436.031 -617.16)"/>
      </g>
    </g>
    <g id="Group_132" data-name="Group 132" class="cls-1" transform="translate(1106 733)">
      <g id="Group_123-2" data-name="Group 123">
        <path id="Path_741-2" data-name="Path 741" class="cls-2" d="M1700.59,1255.13H1550.36v41.358h144.387Z" transform="translate(-1401.102 -1127.997)"/>
        <g id="Group_120-2" data-name="Group 120" transform="translate(111.627)">
          <path id="Path_742-2" data-name="Path 742" class="cls-3" d="M1550.36,259.9V380.587l41.4-23.9V236Z" transform="translate(-1508.958 -212.095)"/>
          <path id="Path_743-2" data-name="Path 743" class="cls-4" d="M1183.012,259.9V380.587l-41.4-23.9V236Z" transform="translate(-1141.61 -212.095)"/>
          <path id="Path_744-2" data-name="Path 744" class="cls-5" d="M1141.61,23.9l41.4,23.9,41.4-23.9L1183.012,0Z" transform="translate(-1141.61)"/>
        </g>
        <g id="Group_121-2" data-name="Group 121" transform="translate(22.825 29.959)">
          <path id="Path_745-2" data-name="Path 745" class="cls-3" d="M485.31,461.064v83.83l26.333-15.2V445.86Z" transform="translate(-458.978 -430.657)"/>
          <path id="Path_746-2" data-name="Path 746" class="cls-6" d="M251.672,461.064v83.83l-26.332-15.2V445.86Z" transform="translate(-225.34 -430.657)"/>
          <path id="Path_747-2" data-name="Path 747" class="cls-5" d="M225.34,310.973l26.332,15.2,26.334-15.2-26.334-15.2Z" transform="translate(-225.34 -295.77)"/>
        </g>
        <g id="Group_122-2" data-name="Group 122" transform="translate(0 87.664)">
          <rect id="Rectangle_49-2" data-name="Rectangle 49" class="cls-7" width="154.247" height="53.768" transform="translate(41.403 95.519)"/>
          <path id="Path_748-2" data-name="Path 748" class="cls-8" d="M408.76,1125.374v101.478l41.4-23.9V1101.47Z" transform="translate(-367.357 -1077.565)"/>
          <path id="Path_749-2" data-name="Path 749" class="cls-9" d="M0,1101.47l41.4,23.9,41.4-23.9-41.4,23.9Z" transform="translate(0 -1077.565)"/>
          <path id="Path_750-2" data-name="Path 750" class="cls-10" d="M41.4,1125.374v101.478L0,1202.948V1101.47Z" transform="translate(0 -1077.565)"/>
          <path id="Path_751-2" data-name="Path 751" class="cls-5" d="M0,889.375l41.4,23.9,41.4-23.9-41.4-23.9Z" transform="translate(0 -865.47)"/>
        </g>
      </g>
      <g id="Group_129-2" data-name="Group 129" transform="translate(204.968 17.764)">
        <rect id="Rectangle_50-2" data-name="Rectangle 50" class="cls-11" width="68.495" height="36.521" transform="translate(26.412 26.24)"/>
        <g id="Group_128-2" data-name="Group 128">
          <g id="Group_124-2" data-name="Group 124" transform="translate(0 25.529)">
            <path id="Path_752-2" data-name="Path 752" class="cls-12" d="M2361.121,593.219v6.735l26.413-15.249V577.97Z" transform="translate(-2334.708 -562.721)"/>
            <path id="Path_753-2" data-name="Path 753" class="cls-9" d="M2100.361,577.97l26.413,15.249,26.412-15.249-26.412,15.249Z" transform="translate(-2100.361 -562.721)"/>
            <path id="Path_754-2" data-name="Path 754" class="cls-13" d="M2126.773,593.219v6.735L2100.361,584.7V577.97Z" transform="translate(-2100.361 -562.721)"/>
            <path id="Path_755-2" data-name="Path 755" class="cls-14" d="M2100.361,442.669l26.413,15.249,26.412-15.249-26.412-15.249Z" transform="translate(-2100.361 -427.42)"/>
          </g>
          <g id="Group_125-2" data-name="Group 125" transform="translate(0 17.02)">
            <path id="Path_756-2" data-name="Path 756" class="cls-15" d="M2361.121,509.2v6.735l26.413-15.249V493.95Z" transform="translate(-2334.708 -478.702)"/>
            <path id="Path_757-2" data-name="Path 757" class="cls-9" d="M2100.361,493.95l26.413,15.249,26.412-15.249L2126.773,509.2Z" transform="translate(-2100.361 -478.702)"/>
            <path id="Path_758-2" data-name="Path 758" class="cls-16" d="M2126.773,509.2v6.735l-26.413-15.249V493.95Z" transform="translate(-2100.361 -478.702)"/>
            <path id="Path_759-2" data-name="Path 759" class="cls-14" d="M2100.361,358.658l26.413,15.249,26.412-15.249-26.412-15.248Z" transform="translate(-2100.361 -343.41)"/>
          </g>
          <g id="Group_126-2" data-name="Group 126" transform="translate(0 8.509)">
            <path id="Path_760-2" data-name="Path 760" class="cls-17" d="M2361.121,425.189v6.735l26.413-15.249V409.94Z" transform="translate(-2334.708 -394.691)"/>
            <path id="Path_761-2" data-name="Path 761" class="cls-9" d="M2100.361,409.94l26.413,15.249,26.412-15.249-26.412,15.249Z" transform="translate(-2100.361 -394.691)"/>
            <path id="Path_762-2" data-name="Path 762" class="cls-16" d="M2126.773,425.189v6.735l-26.413-15.249V409.94Z" transform="translate(-2100.361 -394.691)"/>
            <path id="Path_763-2" data-name="Path 763" class="cls-14" d="M2139.559,282.507l13.626-7.867-26.412-15.249-26.413,15.249,26.413,15.249,12.786-7.382" transform="translate(-2100.361 -259.39)"/>
          </g>
          <g id="Group_127-2" data-name="Group 127">
            <path id="Path_764-2" data-name="Path 764" class="cls-18" d="M2361.121,341.178v6.735l26.413-15.248V325.93Z" transform="translate(-2334.708 -310.681)"/>
            <path id="Path_765-2" data-name="Path 765" class="cls-9" d="M2100.361,325.93l26.413,15.248,26.412-15.248-26.412,15.248Z" transform="translate(-2100.361 -310.681)"/>
            <path id="Path_766-2" data-name="Path 766" class="cls-16" d="M2126.773,341.178v6.735l-26.413-15.248V325.93Z" transform="translate(-2100.361 -310.681)"/>
            <path id="Path_767-2" data-name="Path 767" class="cls-19" d="M2100.361,190.629l26.413,15.248,26.412-15.248-26.412-15.249Z" transform="translate(-2100.361 -175.38)"/>
          </g>
        </g>
      </g>
      <g id="Group_130-2" data-name="Group 130" transform="translate(238.968 55.422)">
        <path id="Path_768-2" data-name="Path 768" class="cls-20" d="M2875.511,896.6v192.173l44.516-25.7V870.9Z" transform="translate(-2830.996 -845.199)"/>
        <path id="Path_769-2" data-name="Path 769" class="cls-9" d="M2436.031,870.9l44.515,25.7,44.516-25.7-44.516,25.7Z" transform="translate(-2436.031 -845.199)"/>
        <path id="Path_770-2" data-name="Path 770" class="cls-21" d="M2480.546,896.6v192.173l-44.515-25.7V870.9Z" transform="translate(-2436.031 -845.199)"/>
        <path id="Path_771-2" data-name="Path 771" class="cls-5" d="M2436.031,642.862l44.515,25.7,44.516-25.7-44.516-25.7Z" transform="translate(-2436.031 -617.16)"/>
      </g>
    </g>
  </g>
</svg>
