<svg xmlns="http://www.w3.org/2000/svg" fill="#bcbdc4" xmlns:xlink="http://www.w3.org/1999/xlink" width="256" height="257" preserveAspectRatio="xMidYMid meet" viewBox="0 0 256 257" style="-ms-transform: rotate(360deg); -webkit-transform: rotate(360deg); transform: rotate(360deg);"><path d="M201.685 25.373C170.902-1.2 102.79-14.364 51.748 23.787c-47.885 32.1-50.253 90.771-50.253 90.771c8.156 32.1 40.518 62.883 102.873 47.886c-7.366-43.15 7.072-152.33 97.317-137.07z"/><path d="M169.62 129.733C135.935 157.688 33.402 200.345 1.495 114.56c-7.622 39.946 13.529 106.431 72.089 131.56c51.742 25.42 105.664-4.02 105.664-4.02c23.72-23.113 34.538-65.864-9.628-112.367" fill="#bcbdc4"/><path d="M108.779 90.524c41.052 15.195 128.807 81.05 70.469 151.576c38.405-13.373 83.44-64.54 75.922-127.818c-3.856-57.52-53.484-88.907-53.484-88.907c-31.876-8.986-74.717 3.649-92.907 65.149" fill="#bcbdc4"/><rect x="0" y="0" width="256" height="257" fill="rgba(0, 0, 0, 0)" /></svg>