<svg xmlns="http://www.w3.org/2000/svg"  fill="#bcbdc4" width="102.22" height="48.876" viewBox="0 0 102.22 48.876">
  <g id="Group_189" data-name="Group 189" transform="translate(-226.844 -110.622)">
    <path id="path3486" d="M243.531,158.045c3.047,0,5.323-.571,6.762-1.7,1.424-1.114,2.408-3.043,2.923-5.735.481-2.516.3-4.273-.544-5.221-.861-.968-2.721-1.459-5.53-1.459h-4.87l-2.7,14.111ZM227.6,175.427a.752.752,0,0,1-.584-.28.778.778,0,0,1-.159-.636l7.155-37.395a.761.761,0,0,1,.744-.623h15.422c4.847,0,8.454,1.337,10.722,3.973s2.984,6.356,2.092,11.012a17.755,17.755,0,0,1-1.854,5.236,17.489,17.489,0,0,1-3.413,4.344,14.927,14.927,0,0,1-5.617,3.418,25.072,25.072,0,0,1-7.716,1.008h-6.244l-1.783,9.319a.761.761,0,0,1-.744.623H227.6Z" transform="translate(0 -15.93)" fill="#bcbdc4"/>
    <path id="path3494" d="M338.136,149.555a.739.739,0,0,1-.577-.28.784.784,0,0,1-.157-.636l3.125-16.546c.3-1.574.224-2.7-.206-3.18-.263-.292-1.054-.781-3.393-.781h-5.661l-3.929,20.8a.754.754,0,0,1-.734.623h-7.855a.739.739,0,0,1-.577-.28.786.786,0,0,1-.157-.636l7.064-37.395a.754.754,0,0,1,.734-.623h7.855a.74.74,0,0,1,.577.28.786.786,0,0,1,.157.637l-1.7,9.025h6.09c4.639,0,7.785.842,9.617,2.573,1.868,1.766,2.45,4.59,1.732,8.395l-3.286,17.4a.754.754,0,0,1-.734.623h-7.979Z" transform="translate(-56.127)" fill="#bcbdc4"/>
    <path id="path3502" d="M411.487,158.045c3.164,0,5.527-.571,7.021-1.7,1.479-1.113,2.5-3.043,3.036-5.735.5-2.516.309-4.273-.565-5.221-.894-.968-2.826-1.459-5.742-1.459H410.18l-2.8,14.111Zm-16.54,17.382a.793.793,0,0,1-.607-.28.757.757,0,0,1-.166-.636l7.43-37.395a.783.783,0,0,1,.773-.623h16.013c5.033,0,8.779,1.337,11.133,3.973s3.1,6.355,2.172,11.012a17.344,17.344,0,0,1-1.926,5.236,17.6,17.6,0,0,1-3.544,4.344,15.618,15.618,0,0,1-5.832,3.418,26.969,26.969,0,0,1-8.012,1.008H405.9l-1.851,9.319a.783.783,0,0,1-.773.623h-8.327Z" transform="translate(-103.021 -15.93)" fill="#bcbdc4"/>
  </g>
</svg>
