<svg xmlns="http://www.w3.org/2000/svg" width="100.126" height="68" viewBox="0 0 100.126 68">
  <g id="Group_183" data-name="Group 183" transform="translate(-521.008 -348.196)">
    <path id="Path_826" data-name="Path 826" d="M635.091,359.769a4.444,4.444,0,0,0-1.144.14v.056H634a9.427,9.427,0,0,0,.893,1.144c.225.446.42.891.642,1.337.028-.027.055-.056.055-.056a1.566,1.566,0,0,0,.588-1.394,6.256,6.256,0,0,1-.335-.586c-.167-.278-.53-.418-.754-.641" transform="translate(-45.639 -4.677)" fill="#bcbdc4" fill-rule="evenodd"/>
    <g id="Group_182" data-name="Group 182" transform="translate(521.008 348.196)">
      <path id="Path_827" data-name="Path 827" d="M545.08,436.5h-3.863q-.2-9.78-1.129-18.4h-.033l-5.882,18.4h-2.942l-5.847-18.4h-.034q-.651,8.275-.82,18.4h-3.522q.341-12.31,1.709-23.082h4.788l5.574,16.96h.034l5.608-16.96H543.3q1.5,12.617,1.778,23.082" transform="translate(-521.008 -374.552)" fill="#bcbdc4"/>
      <path id="Path_828" data-name="Path 828" d="M579.227,423.575q-2.359,12.8-6.224,18.609-3.01,4.473-6.6,4.473a6.507,6.507,0,0,1-2.359-.574v-2.058a11.212,11.212,0,0,0,1.607.1,3.886,3.886,0,0,0,2.7-.925,3.371,3.371,0,0,0,1.23-2.53,16.841,16.841,0,0,0-.958-3.932l-4.24-13.166h3.8l3.043,9.847a13.286,13.286,0,0,1,.854,4.686,64.31,64.31,0,0,0,3.489-14.533Z" transform="translate(-538.399 -378.657)" fill="#bcbdc4"/>
      <path id="Path_829" data-name="Path 829" d="M668.385,436.5H657.408V413.418H661.1v20.243h7.283Z" transform="translate(-576.128 -374.552)" fill="#bcbdc4"/>
      <path id="Path_830" data-name="Path 830" d="M639.672,436.825l-4.243-2.092a7.977,7.977,0,0,0,1.061-1.031q2.7-3.177,2.7-9.4,0-11.454-8.993-11.456a8.516,8.516,0,0,0-6.874,2.908q-2.7,3.179-2.7,9.369,0,6.087,2.393,8.925,2.189,2.564,6.6,2.565a10.641,10.641,0,0,0,3.022-.406l5.525,3.215Zm-13.747-5.175q-1.4-2.256-1.4-7.248,0-8.719,5.3-8.721a4.451,4.451,0,0,1,4.071,2.086q1.4,2.258,1.4,7.181,0,8.788-5.3,8.789a4.444,4.444,0,0,1-4.069-2.087" transform="translate(-561.264 -374.32)" fill="#bcbdc4" fill-rule="evenodd"/>
      <path id="Path_831" data-name="Path 831" d="M608.094,429.893a6.128,6.128,0,0,1-2.154,4.822,8.484,8.484,0,0,1-5.777,1.879,11.58,11.58,0,0,1-6.565-2.155l.992-1.983a11.253,11.253,0,0,0,4.957,1.367,5.2,5.2,0,0,0,3.265-.921,3.142,3.142,0,0,0,1.257-2.564c0-1.371-.956-2.543-2.709-3.525-1.62-.888-4.855-2.743-4.855-2.743a5.529,5.529,0,0,1-2.632-4.913,5.742,5.742,0,0,1,1.964-4.531,7.415,7.415,0,0,1,5.079-1.729,10.506,10.506,0,0,1,5.846,1.712l-.891,1.981a11.315,11.315,0,0,0-4.442-.956,3.959,3.959,0,0,0-2.734.857,2.858,2.858,0,0,0-1.035,2.187c0,1.367.977,2.553,2.779,3.555,1.64.889,4.955,2.78,4.955,2.78a5.453,5.453,0,0,1,2.7,4.879" transform="translate(-550.342 -374.343)" fill="#bcbdc4"/>
      <path id="Path_832" data-name="Path 832" d="M657.991,379.329a12.906,12.906,0,0,0-5.411.781c-.418.167-1.086.167-1.144.7.225.223.251.585.448.893a6.514,6.514,0,0,0,1.45,1.7c.585.446,1.172.891,1.786,1.282,1.086.672,2.314,1.061,3.372,1.73.616.39,1.228.891,1.843,1.311.306.223.5.586.891.724v-.084c-.2-.25-.251-.613-.445-.893-.279-.277-.558-.53-.837-.807a13.312,13.312,0,0,0-2.9-2.816c-.893-.615-2.847-1.452-3.208-2.481l-.057-.057a11.251,11.251,0,0,0,1.925-.449c.946-.25,1.812-.194,2.787-.444.447-.113.893-.253,1.341-.39v-.252c-.5-.5-.865-1.172-1.4-1.645a37.24,37.24,0,0,0-4.6-3.431c-.866-.558-1.981-.919-2.9-1.394-.333-.167-.89-.25-1.087-.531a11.227,11.227,0,0,1-1.144-2.147c-.807-1.532-1.59-3.233-2.286-4.853A29.893,29.893,0,0,0,645,362.6,28.12,28.12,0,0,0,634.2,352.165a13.373,13.373,0,0,0-3.569-1.144c-.7-.029-1.4-.083-2.092-.111a11.146,11.146,0,0,1-1.284-.977c-1.59-1-5.688-3.178-6.86-.306-.753,1.814,1.116,3.6,1.757,4.519a13.083,13.083,0,0,1,1.421,2.091c.2.474.251.977.448,1.478a33.284,33.284,0,0,0,1.45,3.738,13.166,13.166,0,0,0,1.031,1.728c.225.309.614.446.7.95a8,8,0,0,0-.642,2.092,12.286,12.286,0,0,0,.81,9.37c.445.7,1.506,2.232,2.929,1.645,1.254-.5.976-2.091,1.338-3.485.083-.337.027-.558.194-.781v.056c.39.78.782,1.531,1.144,2.314a15.921,15.921,0,0,0,3.627,3.736c.667.5,1.2,1.367,2.034,1.674v-.084h-.055a3.058,3.058,0,0,0-.641-.557,13.752,13.752,0,0,1-1.451-1.674,35.745,35.745,0,0,1-3.122-5.076c-.448-.866-.837-1.814-1.2-2.678-.167-.333-.167-.837-.446-1a10.442,10.442,0,0,0-1.338,1.894,15.793,15.793,0,0,0-.782,4.213c-.111.029-.055,0-.111.055-.891-.223-1.2-1.143-1.534-1.922a12.072,12.072,0,0,1-.251-7.449c.194-.585,1.034-2.425.7-2.983-.168-.532-.726-.836-1.031-1.256a11,11,0,0,1-1-1.785c-.67-1.561-1.006-3.291-1.729-4.852a14.925,14.925,0,0,0-1.394-2.148,13.781,13.781,0,0,1-1.535-2.174c-.139-.307-.334-.81-.112-1.144a.448.448,0,0,1,.392-.364c.361-.306,1.393.083,1.755.251a14.193,14.193,0,0,1,2.761,1.394c.391.279.809.809,1.31.95h.586c.892.194,1.9.054,2.734.306a17.82,17.82,0,0,1,4.015,1.924,24.748,24.748,0,0,1,8.7,9.538c.335.641.476,1.227.782,1.895.586,1.369,1.312,2.764,1.9,4.1a18.375,18.375,0,0,0,1.982,3.738c.417.585,2.092.891,2.845,1.2a19.946,19.946,0,0,1,1.924.78c.949.585,1.895,1.255,2.789,1.9.445.335,1.84,1.031,1.923,1.59" transform="translate(-561.1 -348.196)" fill="#bcbdc4" fill-rule="evenodd"/>
      <path id="Path_833" data-name="Path 833" d="M684.344,450.231h.577V447.4h-.867l-.706,1.928-.769-1.928h-.836v2.828h.546v-2.152h.032l.8,2.152h.417l.8-2.152Zm-4.656,0h.611v-2.348h.8v-.48h-2.245v.48h.833Z" transform="translate(-584.795 -388.286)" fill="#bcbdc4"/>
    </g>
  </g>
</svg>
