<svg xmlns="http://www.w3.org/2000/svg" width="69.169" height="68.99" viewBox="0 0 69.169 68.99">
  <g id="Group_188" data-name="Group 188" transform="translate(-2010 -2516.5)">
    <g id="Group_178" data-name="Group 178" transform="translate(1404 524)">
      <g id="Group_10" data-name="Group 10" transform="translate(555 1966)">
        <g id="Postgresql_elephant" transform="translate(51 8.924)">
          <path id="Path_835" data-name="Path 835" d="M82.837,60.637c-8.354,1.723-8.928-1.105-8.928-1.105,8.821-13.088,12.508-29.7,9.326-33.768-8.681-11.092-23.708-5.846-23.959-5.71l-.081.014a29.792,29.792,0,0,0-5.574-.581A13.765,13.765,0,0,0,44.8,22.128S17.99,11.085,19.237,36.018c.265,5.3,7.6,40.134,16.354,29.614,3.2-3.847,6.289-7.1,6.289-7.1a8.113,8.113,0,0,0,5.3,1.353l.15-.127a5.841,5.841,0,0,0,.06,1.5c-2.255,2.519-1.592,2.961-6.1,3.889-4.56.94-1.881,2.613-.132,3.05,2.121.53,7.026,1.281,10.341-3.359l-.132.529c.883.708,1.5,4.6,1.4,8.133s-.173,5.955.523,7.848S54.679,87.5,60.6,86.23c4.951-1.061,7.516-3.81,7.873-8.4.253-3.26.826-2.778.863-5.693l.46-1.38c.53-4.42.084-5.845,3.134-5.182l.741.065a16.89,16.89,0,0,0,6.907-1.163c3.713-1.723,5.915-4.6,2.254-3.844Z" transform="translate(-16.007 -0.517)" fill="#bcbdc4"/>
          <path id="Path_836" data-name="Path 836" d="M215.481,286.484c-.23,8.224.058,16.5.862,18.517s2.528,5.927,8.453,4.658c4.95-1.061,6.751-3.115,7.533-7.648.576-3.335,1.685-12.6,1.828-14.5" transform="translate(-179.63 -223.831)" fill="none" stroke="#13162d" stroke-linecap="round" stroke-linejoin="round" stroke-width="1"/>
          <path id="Path_837" data-name="Path 837" d="M44.459,26.2S17.633,15.238,18.88,40.17c.265,5.3,7.6,40.136,16.354,29.615,3.2-3.847,6.09-6.865,6.09-6.865" transform="translate(-15.709 -4.774)" fill="none" stroke="#13162d" stroke-linecap="round" stroke-linejoin="round" stroke-width="1"/>
          <path id="Path_838" data-name="Path 838" d="M260.153,19.427c-.929.291,14.922-5.794,23.93,5.716,3.182,4.066-.505,20.68-9.326,33.769" transform="translate(-216.914 0)" fill="none" stroke="#13162d" stroke-linecap="round" stroke-linejoin="round" stroke-width="1"/>
          <path id="Path_839" data-name="Path 839" d="M167.854,62.865s.575,2.829,8.929,1.1c3.66-.756,1.458,2.122-2.255,3.846-3.047,1.414-9.877,1.776-9.989-.178-.287-5.041,3.6-3.51,3.315-4.773-.253-1.138-1.989-2.254-3.138-5.039-1-2.43-13.751-21.067,3.535-18.3.633-.131-4.508-16.442-20.686-16.707s-15.643,19.89-15.643,19.89" transform="translate(-110.011 -3.954)" fill="none" stroke="#13162d" stroke-linecap="round" stroke-linejoin="bevel" stroke-width="1"/>
          <path id="Path_840" data-name="Path 840" d="M145.32,269.689c-2.255,2.519-1.592,2.961-6.1,3.889-4.56.94-1.881,2.613-.132,3.05,2.121.531,7.026,1.282,10.341-3.36,1.009-1.413-.006-3.668-1.393-4.243A2.047,2.047,0,0,0,145.32,269.689Z" transform="translate(-113.996 -209.053)" fill="none" stroke="#13162d" stroke-linecap="round" stroke-linejoin="round" stroke-width="1"/>
          <path id="Path_841" data-name="Path 841" d="M139.8,148.8c-.227-1.481.487-3.243,1.252-5.3,1.15-3.093,3.8-6.187,1.68-16-1.582-7.312-12.19-1.522-12.2-.53a49.771,49.771,0,0,1-.177,9.724c-.857,6.131,3.9,11.315,9.38,10.785" transform="translate(-108.627 -88.211)" fill="none" stroke="#13162d" stroke-linecap="round" stroke-linejoin="round" stroke-width="1"/>
          <path id="Path_842" data-name="Path 842" d="M172.5,139.534c-.048.339.62,1.242,1.491,1.363a1.605,1.605,0,0,0,1.66-.923c.047-.339-.62-.712-1.491-.833s-1.614.055-1.66.393Z" transform="translate(-143.853 -100.926)" fill="#22253b" stroke="#13162d" stroke-width="1"/>
          <path id="Path_843" data-name="Path 843" d="M316.1,135.377c.047.339-.62,1.242-1.491,1.363a1.607,1.607,0,0,1-1.662-.923c-.046-.339.621-.712,1.491-.833s1.614.055,1.661.393Z" transform="translate(-260.972 -97.46)" fill="#22253b" stroke="#13162d" stroke-width="1"/>
          <path id="Path_844" data-name="Path 844" d="M341.354,123.432c.143,2.656-.572,4.466-.662,7.293-.134,4.11,1.96,8.815-1.194,13.525" transform="translate(-283.113 -87.858)" fill="none" stroke="#13162d" stroke-linecap="round" stroke-linejoin="round" stroke-width="1"/>
          <path id="Path_845" data-name="Path 845" d="M0,60.232" transform="translate(0 -35.154)" fill="none" stroke="#fff" stroke-linecap="round" stroke-linejoin="round" stroke-width="1"/>
        </g>
      </g>
    </g>
  </g>
</svg>
