<svg xmlns="http://www.w3.org/2000/svg" width="113.713" height="68" viewBox="0 0 113.713 68">
  <g id="Group_188" data-name="Group 188" transform="translate(-1566 -2747)">
    <g id="Group_184" data-name="Group 184" transform="translate(983 754)">
      <g id="Group_10" data-name="Group 10" transform="translate(555 1966)">
        <g id="Amazon_Web_Services_Logo" transform="translate(26.332 25.9)">
          <path id="Path_861" data-name="Path 861" d="M41.444,25.8a11.443,11.443,0,0,0,.416,3.366,20.245,20.245,0,0,0,1.21,2.723,1.645,1.645,0,0,1,.265.87,1.5,1.5,0,0,1-.719,1.135l-2.383,1.588a1.813,1.813,0,0,1-.983.34,1.74,1.74,0,0,1-1.135-.529,11.7,11.7,0,0,1-1.362-1.778c-.378-.643-.756-1.362-1.172-2.231A13.971,13.971,0,0,1,24.463,36.5,10.363,10.363,0,0,1,16.9,33.776a9.715,9.715,0,0,1-2.8-7.261,9.736,9.736,0,0,1,3.442-7.791c2.307-1.967,5.37-2.95,9.266-2.95a29.944,29.944,0,0,1,4.009.3c1.4.189,2.836.492,4.349.832V14.148c0-2.874-.605-4.879-1.778-6.051-1.21-1.172-3.253-1.74-6.165-1.74a17.208,17.208,0,0,0-4.085.492,30.135,30.135,0,0,0-4.085,1.286,10.852,10.852,0,0,1-1.324.492,2.32,2.32,0,0,1-.605.113c-.529,0-.794-.378-.794-1.172V5.714A2.393,2.393,0,0,1,16.6,4.39,2.832,2.832,0,0,1,17.655,3.6a21.773,21.773,0,0,1,4.765-1.7,22.929,22.929,0,0,1,5.9-.719c4.5,0,7.791,1.021,9.909,3.063,2.08,2.042,3.139,5.143,3.139,9.3V25.8ZM26.089,31.545a12.257,12.257,0,0,0,3.9-.681,8.428,8.428,0,0,0,3.593-2.42,6,6,0,0,0,1.286-2.42,13.577,13.577,0,0,0,.378-3.29V21.144a31.584,31.584,0,0,0-3.479-.643,28.5,28.5,0,0,0-3.555-.227c-2.534,0-4.387.492-5.635,1.513a5.271,5.271,0,0,0-1.853,4.349,5.279,5.279,0,0,0,1.4,4.009A5.244,5.244,0,0,0,26.089,31.545Zm30.369,4.085a2.111,2.111,0,0,1-1.437-.378,3.082,3.082,0,0,1-.794-1.475L45.339,4.542A6.625,6.625,0,0,1,45,3.029a.83.83,0,0,1,.908-.945h3.706a2.1,2.1,0,0,1,1.475.378,3.094,3.094,0,0,1,.756,1.475L58.2,28.973,64.1,3.936a2.653,2.653,0,0,1,.719-1.475,2.6,2.6,0,0,1,1.513-.378h3.026a2.276,2.276,0,0,1,1.513.378,2.548,2.548,0,0,1,.719,1.475l5.976,25.339L84.1,3.936a3.243,3.243,0,0,1,.756-1.475,2.467,2.467,0,0,1,1.475-.378h3.517a.841.841,0,0,1,.946.945,3.771,3.771,0,0,1-.076.605,5.38,5.38,0,0,1-.265.945L81.344,33.814a2.9,2.9,0,0,1-.794,1.475,2.42,2.42,0,0,1-1.437.378H75.86a2.276,2.276,0,0,1-1.513-.378,2.681,2.681,0,0,1-.719-1.513L67.766,9.383,61.942,33.738a2.952,2.952,0,0,1-.719,1.513,2.344,2.344,0,0,1-1.513.378Zm48.6,1.021a25.027,25.027,0,0,1-5.824-.681,17.2,17.2,0,0,1-4.349-1.513A2.725,2.725,0,0,1,93.711,33.4a2.669,2.669,0,0,1-.227-1.059V30.41c0-.794.3-1.172.87-1.172a2.142,2.142,0,0,1,.681.113c.227.076.567.227.945.378a20.572,20.572,0,0,0,4.16,1.324,22.712,22.712,0,0,0,4.5.454,10.2,10.2,0,0,0,5.522-1.248,4.073,4.073,0,0,0,1.967-3.593,3.683,3.683,0,0,0-1.021-2.647,9.489,9.489,0,0,0-3.82-1.967l-5.484-1.7a11.535,11.535,0,0,1-6.051-3.858,9.011,9.011,0,0,1-1.891-5.484,8.417,8.417,0,0,1,1.021-4.2,9.724,9.724,0,0,1,2.723-3.1,12,12,0,0,1,3.933-1.967A16.484,16.484,0,0,1,106.3,1.1a18.986,18.986,0,0,1,2.534.151c.87.113,1.664.265,2.458.416.756.189,1.475.378,2.156.605a8.254,8.254,0,0,1,1.588.681,3.27,3.27,0,0,1,1.135.945,2.038,2.038,0,0,1,.34,1.248V6.924c0,.794-.3,1.21-.87,1.21a3.934,3.934,0,0,1-1.437-.454,17.3,17.3,0,0,0-7.261-1.475,9.762,9.762,0,0,0-5.03,1.059,3.652,3.652,0,0,0-1.778,3.366,3.571,3.571,0,0,0,1.135,2.685,11.3,11.3,0,0,0,4.16,2.08l5.37,1.7a11.5,11.5,0,0,1,5.862,3.631,8.558,8.558,0,0,1,1.74,5.295,9.723,9.723,0,0,1-.983,4.387,10.171,10.171,0,0,1-2.761,3.328,12.192,12.192,0,0,1-4.2,2.118A17.984,17.984,0,0,1,105.057,36.651Z" transform="translate(-7.73)" fill="#bcbdc4"/>
          <g id="Group_187" data-name="Group 187" transform="translate(1.668 43.493)">
            <path id="Path_862" data-name="Path 862" d="M104.474,128.43C92.032,137.621,73.954,142.5,58.41,142.5A83.336,83.336,0,0,1,2.172,121.056C1,120,2.058,118.559,3.458,119.391A113.417,113.417,0,0,0,59.734,134.33a112.3,112.3,0,0,0,42.925-8.774C104.739,124.611,106.517,126.918,104.474,128.43Z" transform="translate(-1.668 -116.892)" fill="#bcbdc4" fill-rule="evenodd"/>
            <path id="Path_863" data-name="Path 863" d="M261.573,118.83c-1.589-2.042-10.514-.983-14.561-.492-1.21.151-1.4-.908-.3-1.7,7.11-4.992,18.8-3.555,20.158-1.891,1.362,1.7-.378,13.388-7.034,18.986-1.021.87-2,.416-1.551-.719C259.8,129.269,263.162,120.835,261.573,118.83Z" transform="translate(-153.586 -113.192)" fill="#bcbdc4" fill-rule="evenodd"/>
          </g>
        </g>
      </g>
    </g>
  </g>
</svg>
