<svg xmlns="http://www.w3.org/2000/svg" width="55.067" height="65.16" viewBox="0 0 55.067 65.16">
  <path id="Path_814" data-name="Path 814" d="M58.238,28.354a4.046,4.046,0,0,0-4.029,4.029V49.172a4.029,4.029,0,1,0,8.059,0V32.383A4.033,4.033,0,0,0,58.238,28.354Zm-47.008,0A4.046,4.046,0,0,0,7.2,32.383V49.172a4.029,4.029,0,0,0,8.059,0V32.383A4.033,4.033,0,0,0,11.229,28.354Zm41.478.691V55.1a4.333,4.333,0,0,1-4.345,4.345H45.478v8.888a4.029,4.029,0,0,1-8.059,0V59.442H32.047v8.888a4.029,4.029,0,0,1-8.059,0V59.442H21.1A4.333,4.333,0,0,1,16.76,55.1V29.045Zm-9.165-15.86,2.844-5.135a.554.554,0,0,0-.217-.77.643.643,0,0,0-.277-.079.543.543,0,0,0-.494.3l-2.884,5.175a19.29,19.29,0,0,0-15.564,0L24.087,7.5a.566.566,0,1,0-.988.553l2.844,5.135a16.428,16.428,0,0,0-9.165,14.438H52.727A16.447,16.447,0,0,0,43.543,13.185Zm-17.1,7.861a1.5,1.5,0,1,1,1.5-1.5A1.5,1.5,0,0,1,26.438,21.046Zm16.591,0a1.5,1.5,0,1,1,1.5-1.5A1.5,1.5,0,0,1,43.029,21.046Z" transform="translate(-7.2 -7.2)" fill="#bcbdc4"/>
</svg>
