<svg xmlns="http://www.w3.org/2000/svg" xmlns:xlink="http://www.w3.org/1999/xlink" width="54.913" height="68" viewBox="0 0 54.913 68">
  <defs>
    <clipPath id="clip-path">
      <path id="Path_818" data-name="Path 818" d="M56.513,33.358l-18.3,18.311,18.3,18.311H35.6l-7.849-7.849h0L17.286,51.669,35.6,33.358ZM35.6,1.98l-34,34L12.062,46.438,56.513,1.98H35.6Z" transform="translate(-1.6 -1.98)"/>
    </clipPath>
  </defs>
  <g id="Group_195" data-name="Group 195" transform="translate(-2504 -2311)">
    <g id="Group_157" data-name="Group 157" transform="translate(1891 318)">
      <g id="Group_10" data-name="Group 10" transform="translate(555 1966)">
        <g id="_1080" data-name="1080" transform="translate(-878.6 1021.02)">
          <g id="Group_176" data-name="Group 176" transform="translate(936.6 -994.02)">
            <g id="Group_163" data-name="Group 163" transform="translate(0 0)">
              <g id="Group_162" data-name="Group 162">
                <g id="Group_161" data-name="Group 161" clip-path="url(#clip-path)">
                  <g id="Group_160" data-name="Group 160" transform="translate(15.692 31.378)">
                    <path id="Path_817" data-name="Path 817" d="M280.521,481.28H259.6l-18.3,18.311,10.455,10.462Z" transform="translate(-241.3 -481.28)" fill="#bcbdc4"/>
                  </g>
                </g>
              </g>
            </g>
            <g id="Group_166" data-name="Group 166" transform="translate(0 0)">
              <g id="Group_165" data-name="Group 165">
                <g id="Group_164" data-name="Group 164" clip-path="url(#clip-path)">
                  <path id="Path_819" data-name="Path 819" d="M12.062,46.438,1.6,35.977l34-34H56.513Z" transform="translate(-1.6 -1.98)" fill="#bcbdc4"/>
                </g>
              </g>
            </g>
            <g id="Group_169" data-name="Group 169" transform="translate(0 0)">
              <g id="Group_168" data-name="Group 168">
                <g id="Group_167" data-name="Group 167" clip-path="url(#clip-path)">
                  <path id="Path_821" data-name="Path 821" d="M401,771.442l7.849,7.843h20.917l-18.3-18.3Z" transform="translate(-374.853 -711.291)" fill="#13162d"/>
                </g>
              </g>
            </g>
            <g id="Group_175" data-name="Group 175" transform="translate(0 0)">
              <g id="Group_174" data-name="Group 174">
                <g id="Group_173" data-name="Group 173" clip-path="url(#clip-path)">
                  <rect id="Rectangle_59" data-name="Rectangle 59" width="14.795" height="14.795" transform="translate(15.691 49.685) rotate(-45)" fill="#4d506c"/>
                </g>
              </g>
            </g>
          </g>
        </g>
      </g>
    </g>
  </g>
</svg>
