<svg xmlns="http://www.w3.org/2000/svg" width="68.003" height="68" viewBox="0 0 68.003 68">
  <g id="Ionic_Logo" transform="translate(0.014 0.04)">
    <g id="Group_192" data-name="Group 192">
      <g id="Group_193" data-name="Group 193">
        <circle id="Ellipse_14" data-name="Ellipse 14" cx="7.058" cy="7.058" r="7.058" transform="translate(49.177 5.737)" fill="#bcbdc4"/>
        <g id="Group_194" data-name="Group 194">
          <path id="Path_815" data-name="Path 815" d="M89.744,222.5a15.494,15.494,0,1,0,15.494,15.494A15.494,15.494,0,0,0,89.744,222.5Z" transform="translate(-55.757 -204.021)" fill="#bcbdc4"/>
          <path id="Path_816" data-name="Path 816" d="M99.176,202.39l-.3-.648-.463.537a10.638,10.638,0,0,1-4.26,2.932l-.463.166.185.463a27.793,27.793,0,1,1-13.741-14.435l.435.208.19-.463a10.638,10.638,0,0,1,3.136-4.112l.555-.463-.634-.328a33.616,33.616,0,0,0-15.587-3.788,34,34,0,1,0,30.938,19.888Z" transform="translate(-34.25 -182.5)" fill="#bcbdc4"/>
        </g>
      </g>
    </g>
  </g>
</svg>
