<svg xmlns="http://www.w3.org/2000/svg" width="68" height="68" viewBox="0 0 68 68">
  <g id="Group_191" data-name="Group 191" transform="translate(-1589 -2301)">
    <g id="Group_153" data-name="Group 153" transform="translate(983 308)">
      <g id="Group_10" data-name="Group 10" transform="translate(555 1966)">
        <g id="IOS_logo" transform="translate(50 26)">
          <rect id="Rectangle_58" data-name="Rectangle 58" width="68" height="68" rx="11" transform="translate(1 1)" fill="#bcbdc4"/>
          <path id="Path_810" data-name="Path 810" d="M29.074,83.7h-1.6V62.328h1.6Zm-.823-26.614a1.221,1.221,0,1,1,1.247-1.21A1.221,1.221,0,0,1,28.252,57.088Z" transform="translate(-16.899 -34.842)" fill="#22253b" fill-rule="evenodd"/>
          <path id="Path_811" data-name="Path 811" d="M53.558,84.117c-7.821,0-12.762-5.7-12.762-14.748,0-9.008,4.964-14.726,12.762-14.726s12.759,5.718,12.759,14.726C66.317,78.422,61.376,84.117,53.558,84.117Zm0-28c-6.808,0-11.154,5.14-11.154,13.254s4.366,13.28,11.154,13.28c6.808,0,11.154-5.16,11.154-13.28S60.366,56.114,53.558,56.114Z" transform="translate(-25.847 -34.84)" fill="#22253b" fill-rule="evenodd"/>
          <path id="Path_812" data-name="Path 812" d="M126.978,84.121c-5.871,0-10.081-3.316-10.32-8.057h1.568c.239,3.888,3.891,6.609,8.871,6.609,4.861,0,8.254-2.761,8.254-6.489,0-3-2.024-4.725-6.825-5.934l-3.393-.834c-5.3-1.352-7.7-3.495-7.7-7.084,0-4.466,4.169-7.682,9.389-7.682,5.4,0,9.426,3.176,9.606,7.383h-1.568c-.219-3.432-3.572-5.934-8.077-5.934-4.309,0-7.741,2.581-7.741,6.193,0,2.86,2.1,4.506,6.705,5.655l3.2.814c5.536,1.369,8.017,3.495,8.017,7.3,0,4.741-3.987,8.057-9.981,8.057Z" transform="translate(-75.118 -34.845)" fill="#22253b" fill-rule="evenodd"/>
        </g>
      </g>
    </g>
  </g>
</svg>
