<svg xmlns="http://www.w3.org/2000/svg" viewBox="0 0 76.311 68">
  <defs>
    <style>
      .cls-1 {
        fill: #bcbdc4;
      }
    </style>
  </defs>
  <g id="Group_144" data-name="Group 144" transform="translate(-175.7 -78)">
    <path id="Path_738" data-name="Path 738" class="cls-1" d="M252.011,112.008c0-5.058-6.331-9.852-16.037-12.825,2.24-9.9,1.244-17.774-3.142-20.3a6.816,6.816,0,0,0-3.484-.872v3.471a3.6,3.6,0,0,1,1.773.4c2.115,1.214,3.033,5.837,2.318,11.782-.171,1.463-.451,3-.793,4.576a75.338,75.338,0,0,0-9.877-1.7A75.915,75.915,0,0,0,216.3,88.77c5.071-4.716,9.831-7.3,13.066-7.3V78h0c-4.278,0-9.877,3.051-15.539,8.342-5.662-5.261-11.262-8.28-15.539-8.28v3.471c3.22,0,8,2.568,13.066,7.253a73.5,73.5,0,0,0-6.424,7.767,72.6,72.6,0,0,0-9.893,1.712c-.358-1.556-.622-3.066-.809-4.514-.731-5.946.171-10.568,2.271-11.8a3.46,3.46,0,0,1,1.789-.4V78.078h0a6.932,6.932,0,0,0-3.515.872c-4.371,2.521-5.351,10.381-3.1,20.249C182,102.187,175.7,106.965,175.7,112.008c0,5.058,6.331,9.852,16.037,12.825-2.24,9.9-1.244,17.774,3.142,20.3a6.834,6.834,0,0,0,3.5.872c4.278,0,9.877-3.051,15.539-8.342,5.662,5.261,11.262,8.28,15.539,8.28a6.932,6.932,0,0,0,3.515-.872c4.371-2.521,5.351-10.381,3.1-20.249C245.712,121.844,252.011,117.051,252.011,112.008Zm-20.252-10.381c-.576,2.008-1.291,4.078-2.1,6.148-.638-1.245-1.307-2.49-2.038-3.735-.716-1.245-1.478-2.459-2.24-3.642C227.59,100.724,229.721,101.128,231.759,101.626ZM224.635,118.2c-1.213,2.1-2.458,4.093-3.749,5.946-2.318.2-4.666.311-7.031.311-2.349,0-4.7-.109-7-.3q-1.937-2.778-3.764-5.914-1.773-3.058-3.235-6.195c.964-2.086,2.053-4.171,3.22-6.21,1.213-2.1,2.458-4.093,3.749-5.946,2.318-.2,4.666-.311,7.031-.311,2.349,0,4.7.109,7,.3q1.937,2.778,3.764,5.914,1.773,3.058,3.235,6.195C226.875,114.078,225.8,116.163,224.635,118.2Zm5.024-2.023c.84,2.086,1.555,4.171,2.147,6.195-2.038.5-4.184.918-6.409,1.245.762-1.2,1.524-2.428,2.24-3.689C228.353,118.685,229.021,117.424,229.659,116.179Zm-15.772,16.607a64.158,64.158,0,0,1-4.324-4.981c1.4.062,2.831.109,4.278.109,1.462,0,2.909-.031,4.324-.109A60.743,60.743,0,0,1,213.887,132.786Zm-11.573-9.167c-2.209-.327-4.34-.732-6.377-1.23.576-2.008,1.291-4.078,2.1-6.148.638,1.245,1.307,2.49,2.038,3.735S201.552,122.436,202.314,123.619ZM213.809,91.23a64.147,64.147,0,0,1,4.324,4.981c-1.4-.062-2.831-.109-4.277-.109-1.462,0-2.909.031-4.324.109A60.736,60.736,0,0,1,213.809,91.23ZM202.3,100.4c-.762,1.2-1.524,2.428-2.24,3.689-.716,1.245-1.384,2.49-2.022,3.735-.84-2.086-1.555-4.171-2.147-6.195C197.928,101.144,200.074,100.724,202.3,100.4Zm-14.077,19.486c-5.506-2.35-9.068-5.432-9.068-7.875s3.562-5.541,9.068-7.875c1.338-.576,2.8-1.089,4.309-1.572a74.787,74.787,0,0,0,3.5,9.479,73.729,73.729,0,0,0-3.453,9.432C191.037,120.988,189.575,120.459,188.222,119.883Zm8.368,22.241c-2.115-1.214-3.033-5.837-2.318-11.782.171-1.463.451-3,.793-4.576a75.34,75.34,0,0,0,9.877,1.7,75.908,75.908,0,0,0,6.471,7.782c-5.071,4.716-9.831,7.3-13.066,7.3A3.71,3.71,0,0,1,196.59,142.125Zm36.9-11.86c.731,5.946-.171,10.568-2.271,11.8a3.46,3.46,0,0,1-1.789.4c-3.22,0-8-2.568-13.066-7.253a73.5,73.5,0,0,0,6.424-7.767,72.6,72.6,0,0,0,9.893-1.712A43.6,43.6,0,0,1,233.486,130.265Zm5.989-10.381c-1.338.576-2.8,1.09-4.309,1.572a74.785,74.785,0,0,0-3.5-9.479,73.732,73.732,0,0,0,3.453-9.432c1.54.482,3,1.012,4.371,1.588,5.506,2.35,9.068,5.432,9.068,7.875C248.542,114.451,244.98,117.549,239.474,119.883Z" transform="translate(0 0)"/>
    <ellipse id="Ellipse_8" data-name="Ellipse 8" class="cls-1" cx="7.108" cy="7.113" rx="7.108" ry="7.113" transform="translate(206.732 104.895)"/>
  </g>
</svg>
