<svg xmlns="http://www.w3.org/2000/svg" viewBox="0 0 67.999 68.001">
  <defs>
    <style>
      .cls-1 {
        fill: #bcbdc4;
      }
    </style>
  </defs>
  <path id="Subtraction_3" data-name="Subtraction 3" class="cls-1" d="M-826-1925h-68v-68h68v68Zm-24.609-16.4h0l-5.725,3.326a12.67,12.67,0,0,0,4.741,5.134,15.414,15.414,0,0,0,8.1,2.07,13.219,13.219,0,0,0,8.346-2.53,8.965,8.965,0,0,0,3.328-7.287,9.343,9.343,0,0,0-2.438-6.777c-1.434-1.539-3.505-2.822-6.927-4.29l-1.761-.754c-2.944-1.275-4.332-2.113-4.332-4.278a3.07,3.07,0,0,1,3.371-3.019c2.025,0,3.338.875,4.534,3.019l5.485-3.523c-2.217-3.9-5.307-5.64-10.02-5.64a10.79,10.79,0,0,0-7.518,2.672,8.925,8.925,0,0,0-2.8,6.635A9.552,9.552,0,0,0-851.9-1950a16.509,16.509,0,0,0,6.137,3.969l1.76.755c3.2,1.4,5.129,2.244,5.129,4.677a3.022,3.022,0,0,1-1.3,2.494,5.815,5.815,0,0,1-3.486.981,7.219,7.219,0,0,1-4.212-1.214,9.639,9.639,0,0,1-2.738-3.064Zm-24.886.61-5.735,3.472a11.06,11.06,0,0,0,3.792,4.536,11.865,11.865,0,0,0,6.776,1.9,13.573,13.573,0,0,0,4.277-.633,8.876,8.876,0,0,0,3.323-1.939c1.937-1.824,2.919-4.53,2.919-8.044v-24.049h-7.044v23.954a4.911,4.911,0,0,1-1.02,3.533,3.64,3.64,0,0,1-2.755.893,3.768,3.768,0,0,1-2.76-1.075,10.69,10.69,0,0,1-1.774-2.548Z" transform="translate(894 1993)"/>
</svg>
